<svg width="40" height="40" viewBox="0 0 40 40" fill="none" xmlns="http://www.w3.org/2000/svg">
<path opacity="0.4" d="M3.33334 21.6167V11.65C3.33334 7.05 7.06668 3.33334 11.6667 3.33334H28.3333C32.9333 3.33334 36.6667 7.05 36.6667 11.65V23.2833C36.6667 27.8667 32.9333 31.5833 28.3333 31.5833H25.8333C25.3167 31.5833 24.8167 31.8333 24.5 32.25L22 35.5667C20.9 37.0333 19.1 37.0333 18 35.5667L15.5 32.25C15.2333 31.8833 14.6333 31.5833 14.1667 31.5833H11.6667C7.06668 31.5833 3.33334 27.8667 3.33334 23.2833V21.6167Z" fill="#7F8184"/>
<path d="M28.3333 14.5833H11.6667C10.9833 14.5833 10.4167 14.0167 10.4167 13.3333C10.4167 12.65 10.9833 12.0833 11.6667 12.0833H28.3333C29.0167 12.0833 29.5833 12.65 29.5833 13.3333C29.5833 14.0167 29.0167 14.5833 28.3333 14.5833Z" fill="#7F8184"/>
<path d="M21.6667 22.9167H11.6667C10.9833 22.9167 10.4167 22.35 10.4167 21.6667C10.4167 20.9833 10.9833 20.4167 11.6667 20.4167H21.6667C22.35 20.4167 22.9167 20.9833 22.9167 21.6667C22.9167 22.35 22.35 22.9167 21.6667 22.9167Z" fill="#7F8184"/>
</svg>
