<svg width="40" height="40" viewBox="0 0 40 40" fill="none" xmlns="http://www.w3.org/2000/svg">
<path opacity="0.4" d="M15 3.33334C10.6333 3.33334 7.08334 6.88334 7.08334 11.25C7.08334 15.5333 10.4333 19 14.8 19.15C14.9333 19.1333 15.0667 19.1333 15.1667 19.15C15.2 19.15 15.2167 19.15 15.25 19.15C15.2667 19.15 15.2667 19.15 15.2833 19.15C19.55 19 22.9 15.5333 22.9167 11.25C22.9167 6.88334 19.3667 3.33334 15 3.33334Z" fill="#7F8184"/>
<path d="M23.4667 23.5833C18.8167 20.4833 11.2333 20.4833 6.55 23.5833C4.43333 25 3.26666 26.9167 3.26666 28.9667C3.26666 31.0167 4.43333 32.9167 6.53333 34.3167C8.86666 35.8833 11.9333 36.6667 15 36.6667C18.0667 36.6667 21.1333 35.8833 23.4667 34.3167C25.5667 32.9 26.7333 31 26.7333 28.9333C26.7167 26.8833 25.5667 24.9833 23.4667 23.5833Z" fill="#7F8184"/>
<path opacity="0.4" d="M33.3167 12.2333C33.5833 15.4667 31.2833 18.3 28.1 18.6833C28.0833 18.6833 28.0833 18.6833 28.0667 18.6833H28.0167C27.9167 18.6833 27.8167 18.6833 27.7333 18.7167C26.1167 18.8 24.6333 18.2833 23.5167 17.3333C25.2333 15.8 26.2167 13.5 26.0167 11C25.9 9.65 25.4333 8.41667 24.7333 7.36667C25.3667 7.05 26.1 6.85 26.85 6.78333C30.1167 6.5 33.0333 8.93333 33.3167 12.2333Z" fill="#7F8184"/>
<path d="M36.65 27.65C36.5167 29.2667 35.4833 30.6667 33.75 31.6167C32.0833 32.5333 29.9833 32.9667 27.9 32.9167C29.1 31.8333 29.8 30.4833 29.9333 29.05C30.1 26.9833 29.1167 25 27.15 23.4167C26.0333 22.5333 24.7333 21.8333 23.3167 21.3167C27 20.25 31.6333 20.9667 34.4833 23.2667C36.0167 24.5 36.8 26.05 36.65 27.65Z" fill="#7F8184"/>
</svg>
