<svg width="40" height="40" viewBox="0 0 40 40" fill="none" xmlns="http://www.w3.org/2000/svg">
<path opacity="0.4" d="M34.7167 13.35L23.8 4.61667C21.6667 2.91667 18.3333 2.9 16.2167 4.6L5.30001 13.35C3.73334 14.6 2.78334 17.1 3.11668 19.0667L5.21668 31.6333C5.70001 34.45 8.31668 36.6667 11.1667 36.6667H28.8333C31.65 36.6667 34.3167 34.4 34.8 31.6167L36.9 19.05C37.2 17.1 36.25 14.6 34.7167 13.35Z" fill="#E62250"/>
<path d="M20 31.25C19.3167 31.25 18.75 30.6833 18.75 30V25C18.75 24.3167 19.3167 23.75 20 23.75C20.6833 23.75 21.25 24.3167 21.25 25V30C21.25 30.6833 20.6833 31.25 20 31.25Z" fill="#E62250"/>
</svg>
