<svg width="40" height="40" viewBox="0 0 40 40" fill="none" xmlns="http://www.w3.org/2000/svg">
<path opacity="0.4" d="M20 36.6833C29.2047 36.6833 36.6667 29.2214 36.6667 20.0167C36.6667 10.8119 29.2047 3.35 20 3.35C10.7952 3.35 3.33333 10.8119 3.33333 20.0167C3.33333 29.2214 10.7952 36.6833 20 36.6833Z" fill="#7F8184"/>
<path d="M20 11.5667C16.55 11.5667 13.75 14.3667 13.75 17.8167C13.75 21.2 16.4 23.95 19.9167 24.05C19.9667 24.05 20.0333 24.05 20.0667 24.05C20.1 24.05 20.15 24.05 20.1833 24.05C20.2 24.05 20.2167 24.05 20.2167 24.05C23.5833 23.9333 26.2333 21.2 26.25 17.8167C26.25 14.3667 23.45 11.5667 20 11.5667Z" fill="#7F8184"/>
<path d="M31.3 32.2667C28.3333 35 24.3667 36.6833 20 36.6833C15.6333 36.6833 11.6667 35 8.7 32.2667C9.1 30.75 10.1833 29.3667 11.7667 28.3C16.3167 25.2667 23.7167 25.2667 28.2333 28.3C29.8333 29.3667 30.9 30.75 31.3 32.2667Z" fill="#7F8184"/>
</svg>
